<svg xmlns="http://www.w3.org/2000/svg" xmlns:xlink="http://www.w3.org/1999/xlink" width="600" zoomAndPan="magnify" viewBox="0 0 450 449.999984" height="600" preserveAspectRatio="xMidYMid meet" version="1.0"><defs><g/><clipPath id="c0cc1a700d"><path d="M 50.460938 178.964844 L 434.480469 178.964844 L 434.480469 357.648438 L 50.460938 357.648438 Z M 50.460938 178.964844 " clip-rule="nonzero"/></clipPath><clipPath id="a696f57e6a"><path d="M 71.460938 178.964844 L 413.480469 178.964844 C 425.078125 178.964844 434.480469 188.367188 434.480469 199.964844 L 434.480469 336.648438 C 434.480469 348.246094 425.078125 357.648438 413.480469 357.648438 L 71.460938 357.648438 C 59.863281 357.648438 50.460938 348.246094 50.460938 336.648438 L 50.460938 199.964844 C 50.460938 188.367188 59.863281 178.964844 71.460938 178.964844 Z M 71.460938 178.964844 " clip-rule="nonzero"/></clipPath><clipPath id="b4dde6d9d6"><path d="M 15.519531 92.351562 L 399.539062 92.351562 L 399.539062 234.175781 L 15.519531 234.175781 Z M 15.519531 92.351562 " clip-rule="nonzero"/></clipPath><clipPath id="8a56cb00d1"><path d="M 36.519531 92.351562 L 378.539062 92.351562 C 390.136719 92.351562 399.539062 101.753906 399.539062 113.351562 L 399.539062 213.175781 C 399.539062 224.773438 390.136719 234.175781 378.539062 234.175781 L 36.519531 234.175781 C 24.921875 234.175781 15.519531 224.773438 15.519531 213.175781 L 15.519531 113.351562 C 15.519531 101.753906 24.921875 92.351562 36.519531 92.351562 Z M 36.519531 92.351562 " clip-rule="nonzero"/></clipPath></defs><g clip-path="url(#c0cc1a700d)"><g clip-path="url(#a696f57e6a)"><path fill="#1d066c" d="M 50.460938 178.964844 L 434.480469 178.964844 L 434.480469 357.648438 L 50.460938 357.648438 Z M 50.460938 178.964844 " fill-opacity="1" fill-rule="nonzero"/></g></g><g clip-path="url(#b4dde6d9d6)"><g clip-path="url(#8a56cb00d1)"><path fill="#d8d8d8" d="M 15.519531 92.351562 L 399.539062 92.351562 L 399.539062 234.175781 L 15.519531 234.175781 Z M 15.519531 92.351562 " fill-opacity="1" fill-rule="nonzero"/></g></g><path fill="#000000" d="M 179.105469 176.109375 C 179.105469 168.683594 179.105469 161.285156 179.105469 153.859375 C 179.105469 153.375 179.078125 152.886719 179.160156 152.429688 C 179.402344 150.648438 180.320312 149.378906 182.070312 148.785156 C 187.652344 146.839844 193.367188 145.542969 199.269531 145.058594 C 203.421875 144.707031 207.574219 144.734375 211.699219 145.355469 C 214.71875 145.8125 217.628906 146.625 220.324219 148.054688 C 225.609375 150.835938 228.546875 155.292969 229.542969 161.125 C 229.8125 162.636719 229.894531 164.148438 229.894531 165.660156 C 229.894531 176.730469 229.894531 187.777344 229.894531 198.847656 C 229.894531 199.0625 229.894531 199.277344 229.894531 199.496094 C 229.839844 201.0625 229.140625 201.816406 227.578125 201.84375 C 224.289062 201.871094 221 201.871094 217.710938 201.84375 C 216.226562 201.84375 215.5 201.089844 215.390625 199.601562 C 215.363281 199.226562 215.390625 198.820312 215.390625 198.441406 C 215.390625 188.371094 215.390625 178.324219 215.390625 168.253906 C 215.390625 166.957031 215.308594 165.632812 214.90625 164.390625 C 213.800781 161.097656 211.347656 159.367188 208.113281 158.640625 C 205.445312 158.046875 202.773438 158.234375 200.078125 158.503906 C 198.839844 158.613281 197.597656 158.882812 196.386719 159.179688 C 194.285156 159.664062 193.664062 160.476562 193.664062 162.636719 C 193.664062 174.597656 193.664062 186.585938 193.664062 198.550781 C 193.664062 198.902344 193.664062 199.253906 193.664062 199.601562 C 193.609375 201.0625 192.855469 201.84375 191.371094 201.871094 C 189.644531 201.898438 187.894531 201.871094 186.167969 201.871094 C 184.660156 201.871094 183.121094 201.898438 181.613281 201.871094 C 179.832031 201.84375 179.105469 201.089844 179.105469 199.304688 C 179.105469 191.554688 179.105469 183.832031 179.105469 176.109375 Z M 179.105469 176.109375 " fill-opacity="1" fill-rule="nonzero"/><path fill="#000000" d="M 96.046875 201.84375 C 94.402344 201.84375 92.761719 201.871094 91.117188 201.84375 C 89.445312 201.816406 88.878906 201.0625 89.335938 199.386719 C 89.660156 198.171875 89.929688 196.957031 89.957031 195.6875 C 90.011719 192.472656 88.6875 189.988281 86.128906 188.152344 C 84.242188 186.804688 82.136719 185.886719 79.953125 185.183594 C 76.34375 184.023438 72.675781 182.941406 69.0625 181.78125 C 66.125 180.835938 63.320312 179.648438 60.761719 177.894531 C 56.449219 174.921875 54.289062 170.816406 54.046875 165.605469 C 53.589844 156.183594 58.820312 149.242188 67.417969 146.164062 C 71.382812 144.761719 75.507812 144.273438 79.683594 144.382812 C 86.34375 144.570312 92.734375 145.894531 98.769531 148.757812 C 99.632812 149.160156 100.46875 149.59375 101.304688 150.078125 C 103.03125 151.050781 103.460938 152.265625 102.734375 154.101562 C 102.464844 154.777344 102.140625 155.453125 101.84375 156.128906 C 101.007812 157.882812 100.199219 159.664062 99.335938 161.421875 C 98.367188 163.417969 96.804688 163.960938 94.863281 162.90625 C 91.628906 161.152344 88.285156 159.640625 84.671875 158.773438 C 81.140625 157.9375 77.582031 157.585938 73.996094 158.398438 C 72.890625 158.640625 71.839844 159.042969 70.898438 159.691406 C 68.148438 161.609375 68.039062 164.957031 70.65625 167.039062 C 71.8125 167.957031 73.160156 168.550781 74.5625 169.0625 C 77.933594 170.304688 81.4375 171.140625 84.859375 172.195312 C 88.042969 173.167969 91.195312 174.273438 94.132812 175.867188 C 96.15625 176.972656 98.042969 178.269531 99.660156 179.917969 C 103.085938 183.402344 104.566406 187.695312 104.703125 192.5 C 104.78125 194.660156 104.59375 196.820312 104 198.929688 C 103.921875 199.253906 103.8125 199.601562 103.703125 199.925781 C 103.164062 201.386719 102.519531 201.84375 100.980469 201.871094 C 99.335938 201.871094 97.691406 201.84375 96.046875 201.84375 Z M 96.046875 201.84375 " fill-opacity="1" fill-rule="nonzero"/><path fill="#000000" d="M 307.585938 172.195312 C 307.585938 163.609375 307.558594 155.019531 307.585938 146.433594 C 307.585938 142.625 308.179688 138.925781 309.691406 135.390625 C 312.332031 129.261719 317.128906 125.75 323.519531 124.320312 C 328.019531 123.320312 332.550781 123.320312 337.050781 124.265625 C 337.132812 124.292969 337.214844 124.292969 337.292969 124.320312 C 339.503906 124.832031 339.992188 125.5625 339.558594 127.828125 C 339.183594 129.800781 338.832031 131.746094 338.453125 133.6875 C 338.078125 135.714844 337.375 136.226562 335.300781 135.929688 C 333.683594 135.714844 332.039062 135.417969 330.394531 135.445312 C 329.476562 135.472656 328.558594 135.578125 327.699219 135.796875 C 324.410156 136.578125 322.496094 138.980469 322.117188 142.625 C 322.035156 143.410156 322.007812 144.191406 321.984375 144.976562 C 321.957031 145.894531 321.957031 145.921875 322.871094 145.921875 C 325.351562 145.921875 327.804688 145.921875 330.285156 145.921875 C 332.117188 145.921875 333.925781 145.921875 335.757812 145.921875 C 337.726562 145.921875 338.398438 146.625 338.425781 148.59375 C 338.453125 150.945312 338.453125 153.265625 338.425781 155.617188 C 338.425781 157.585938 337.726562 158.234375 335.730469 158.234375 C 331.605469 158.234375 327.507812 158.234375 323.382812 158.234375 C 323.089844 158.234375 322.792969 158.234375 322.46875 158.234375 C 322.144531 158.234375 322.007812 158.398438 322.007812 158.71875 C 322.007812 159.070312 322.007812 159.421875 322.007812 159.773438 C 322.007812 172.734375 321.984375 185.695312 322.035156 198.683594 C 322.035156 200.84375 321.496094 201.925781 318.910156 201.84375 C 316.050781 201.761719 313.195312 201.761719 310.335938 201.84375 C 308.34375 201.898438 307.558594 200.738281 307.585938 199.089844 C 307.613281 190.152344 307.585938 181.160156 307.585938 172.195312 Z M 307.585938 172.195312 " fill-opacity="1" fill-rule="nonzero"/><path fill="#000000" d="M 361.179688 173.871094 C 361.179688 182.050781 361.179688 190.261719 361.179688 198.441406 C 361.179688 198.710938 361.179688 198.953125 361.179688 199.226562 C 361.152344 201.167969 360.480469 201.84375 358.484375 201.84375 C 355.976562 201.84375 353.46875 201.84375 350.933594 201.84375 C 350.234375 201.84375 349.5625 201.871094 348.859375 201.84375 C 347.539062 201.789062 346.785156 201.089844 346.648438 199.765625 C 346.59375 199.386719 346.621094 198.980469 346.621094 198.605469 C 346.621094 182.132812 346.621094 165.660156 346.621094 149.160156 C 346.621094 146.515625 347.214844 145.949219 349.804688 145.949219 C 352.714844 145.949219 355.597656 145.949219 358.511719 145.949219 C 360.453125 145.949219 361.152344 146.648438 361.179688 148.621094 C 361.179688 157.046875 361.179688 165.445312 361.179688 173.871094 Z M 361.179688 173.871094 " fill-opacity="1" fill-rule="nonzero"/><path fill="#7a00e6" d="M 361.636719 131.394531 C 361.664062 135.09375 359.832031 137.792969 356.625 138.710938 C 354.84375 139.222656 353.039062 139.199219 351.257812 138.683594 C 347.671875 137.632812 346.027344 134.632812 346.136719 130.878906 C 346.164062 130.285156 346.246094 129.664062 346.378906 129.070312 C 347.054688 126.289062 348.777344 124.507812 351.554688 123.859375 C 353.390625 123.429688 355.25 123.507812 357.054688 124.15625 C 359.886719 125.183594 361.261719 127.316406 361.609375 130.234375 C 361.664062 130.609375 361.636719 131.015625 361.636719 131.394531 Z M 361.636719 131.394531 " fill-opacity="1" fill-rule="nonzero"/><path fill="#7a00e6" d="M 68.6875 195.203125 C 68.632812 196.039062 68.605469 196.792969 68.417969 197.578125 C 67.636719 200.519531 65.722656 202.25 62.78125 202.816406 C 61.246094 203.113281 59.683594 203.03125 58.171875 202.546875 C 55.773438 201.761719 54.15625 200.195312 53.507812 197.738281 C 53.023438 195.902344 53.050781 194.039062 53.644531 192.230469 C 54.425781 189.882812 56.070312 188.398438 58.46875 187.777344 C 60.140625 187.34375 61.8125 187.398438 63.484375 187.828125 C 66.394531 188.585938 68.363281 190.933594 68.632812 193.960938 C 68.660156 194.390625 68.6875 194.824219 68.6875 195.203125 Z M 68.6875 195.203125 " fill-opacity="1" fill-rule="nonzero"/><path fill="#000000" d="M 165.546875 153.050781 C 165.4375 150.972656 164.523438 149.511719 162.472656 148.863281 C 162.339844 148.835938 162.230469 148.785156 162.09375 148.730469 C 156.703125 146.730469 151.175781 145.433594 145.433594 145.003906 C 141.363281 144.707031 137.292969 144.679688 133.304688 145.625 C 123.464844 147.945312 116.726562 153.777344 113.597656 163.472656 C 111.171875 171.007812 111.441406 178.621094 113.949219 186.074219 C 115.808594 191.636719 119.257812 196.039062 124.382812 199.035156 C 128.425781 201.414062 132.847656 202.546875 137.457031 202.816406 C 142.765625 203.140625 147.996094 202.734375 153.199219 201.546875 C 156.460938 200.792969 159.617188 199.765625 162.6875 198.46875 C 164.414062 197.738281 165.359375 196.46875 165.519531 194.609375 C 165.546875 194.175781 165.546875 193.742188 165.546875 193.3125 C 165.546875 186.777344 165.546875 180.214844 165.546875 173.679688 C 165.546875 167.171875 165.546875 160.664062 165.546875 154.183594 C 165.546875 153.832031 165.574219 153.429688 165.546875 153.050781 Z M 148.96875 188.261719 C 144.871094 189.558594 140.664062 190.097656 136.429688 188.992188 C 132.226562 187.882812 129.367188 185.183594 127.96875 181.105469 C 126.324219 176.378906 126.296875 171.546875 127.941406 166.820312 C 129.773438 161.582031 133.683594 158.855469 139.15625 158.371094 C 142.066406 158.125 144.949219 158.398438 147.78125 159.152344 C 148.105469 159.234375 148.453125 159.339844 148.777344 159.449219 C 150.449219 160.070312 151.015625 160.855469 151.042969 162.664062 C 151.070312 166.445312 151.042969 170.195312 151.042969 173.976562 C 151.042969 177.703125 151.015625 181.429688 151.042969 185.15625 C 151.042969 186.722656 150.394531 187.804688 148.96875 188.261719 Z M 148.96875 188.261719 " fill-opacity="1" fill-rule="nonzero"/><path fill="#000000" d="M 295.589844 164.660156 C 293.109375 156.019531 287.828125 149.863281 279.363281 146.703125 C 273.972656 144.707031 268.390625 144.328125 262.730469 145.355469 C 254.210938 146.894531 247.769531 151.429688 243.941406 159.234375 C 239.679688 167.929688 239.464844 176.949219 242.808594 185.964844 C 245.691406 193.769531 251.300781 198.902344 259.171875 201.492188 C 263.886719 203.03125 268.769531 203.355469 273.675781 202.628906 C 282.433594 201.359375 289.066406 196.902344 293.273438 189.070312 C 295.808594 184.347656 296.777344 179.242188 296.804688 172.789062 C 296.777344 170.765625 296.453125 167.6875 295.589844 164.660156 Z M 280.738281 181.484375 C 278.554688 187.453125 273.351562 189.988281 267.636719 189.449219 C 266.152344 189.316406 264.722656 189.042969 263.347656 188.476562 C 260.035156 187.101562 257.796875 184.671875 256.609375 181.320312 C 254.859375 176.328125 254.859375 171.277344 256.664062 166.308594 C 258.550781 161.097656 262.917969 158.207031 268.472656 158.289062 C 269.765625 158.316406 271.058594 158.421875 272.328125 158.746094 C 276.449219 159.828125 279.28125 162.394531 280.738281 166.335938 C 282.570312 171.386719 282.570312 176.488281 280.738281 181.484375 Z M 280.738281 181.484375 " fill-opacity="1" fill-rule="nonzero"/><g fill="#ffffff" fill-opacity="1"><g transform="translate(81.372481, 305.439379)"><g><path d="M 18.367188 0.785156 C 27.660156 0.785156 33.371094 -3.640625 33.371094 -11.03125 C 33.371094 -17.246094 29.285156 -20.941406 19.542969 -23.238281 C 13.550781 -24.636719 11.480469 -26.148438 11.480469 -28.558594 C 11.480469 -31.132812 13.773438 -32.699219 17.527344 -32.699219 C 21.613281 -32.699219 24.078125 -30.574219 24.078125 -27.046875 L 32.644531 -27.046875 C 32.644531 -34.941406 26.710938 -39.980469 17.414062 -39.980469 C 8.398438 -39.980469 2.800781 -35.558594 2.800781 -28.390625 C 2.800781 -22.007812 7.113281 -18.199219 16.292969 -16.238281 C 21.839844 -15.0625 24.359375 -13.4375 24.359375 -10.695312 C 24.359375 -8.0625 22.007812 -6.550781 18.308594 -6.550781 C 14 -6.550781 11.199219 -8.734375 11.199219 -12.488281 L 2.464844 -12.488281 C 2.464844 -4.367188 8.511719 0.785156 18.367188 0.785156 Z M 18.367188 0.785156 "/></g></g></g><g fill="#ffffff" fill-opacity="1"><g transform="translate(117.263474, 305.439379)"><g><path d="M 4.253906 0 L 12.765625 0 L 12.765625 -15.902344 C 12.765625 -20.15625 15.117188 -22.902344 18.757812 -22.902344 C 22.285156 -22.902344 24.46875 -20.269531 24.46875 -16.125 L 24.46875 0 L 32.867188 0 L 32.867188 -15.902344 C 32.867188 -20.15625 35.222656 -22.902344 38.859375 -22.902344 C 42.386719 -22.902344 44.570312 -20.269531 44.570312 -16.125 L 44.570312 0 L 53.082031 0 L 53.082031 -17.132812 C 53.082031 -25.199219 48.269531 -30.179688 40.765625 -30.179688 C 36.285156 -30.179688 32.589844 -28.445312 30.179688 -25.367188 C 28.109375 -28.5 24.695312 -30.179688 20.496094 -30.179688 C 16.742188 -30.179688 13.550781 -28.894531 11.421875 -26.375 L 10.582031 -29.398438 L 4.253906 -29.398438 Z M 4.253906 0 "/></g></g></g><g fill="#ffffff" fill-opacity="1"><g transform="translate(174.039542, 305.439379)"><g><path d="M 14.054688 0.558594 C 18.421875 0.558594 22.007812 -0.839844 24.527344 -3.414062 L 25.476562 0 L 31.804688 0 L 31.804688 -17.695312 C 31.804688 -25.476562 26.542969 -30.179688 17.75 -30.179688 C 10.246094 -30.179688 5.320312 -26.597656 4.253906 -20.214844 L 12.429688 -20.214844 C 12.933594 -22.285156 15.0625 -23.6875 17.804688 -23.6875 C 21.167969 -23.6875 23.460938 -21.78125 23.460938 -18.871094 L 23.460938 -17.527344 L 12.824219 -17.527344 C 6.71875 -17.527344 2.800781 -14 2.800781 -8.566406 C 2.800781 -2.910156 7.113281 0.558594 14.054688 0.558594 Z M 11.199219 -8.902344 C 11.199219 -10.917969 12.878906 -12.207031 15.453125 -12.207031 L 23.519531 -12.207031 C 23.351562 -8.230469 20.269531 -5.542969 16.015625 -5.542969 C 13.101562 -5.542969 11.199219 -6.886719 11.199219 -8.902344 Z M 11.199219 -8.902344 "/></g></g></g><g fill="#ffffff" fill-opacity="1"><g transform="translate(209.538586, 305.439379)"><g><path d="M 4.253906 0 L 12.765625 0 L 12.765625 -12.992188 C 12.765625 -19.316406 15.734375 -21.671875 20.605469 -21.671875 L 23.855469 -21.671875 L 23.855469 -29.398438 L 20.664062 -29.398438 C 16.351562 -29.398438 13.605469 -28.222656 11.703125 -25.476562 L 10.582031 -29.398438 L 4.253906 -29.398438 Z M 4.253906 0 "/></g></g></g><g fill="#ffffff" fill-opacity="1"><g transform="translate(235.294989, 305.439379)"><g><path d="M 18.421875 0 L 23.796875 0 L 23.796875 -7.390625 L 20.269531 -7.390625 C 16.910156 -7.390625 15.34375 -9.015625 15.34375 -12.429688 L 15.34375 -22.453125 L 23.40625 -22.453125 L 23.40625 -29.398438 L 15.34375 -29.398438 L 15.34375 -37.011719 L 8.734375 -37.011719 L 8.230469 -33.203125 C 7.785156 -30.179688 6.945312 -29.398438 3.75 -29.398438 L 1.121094 -29.398438 L 1.121094 -22.453125 L 6.832031 -22.453125 L 6.832031 -11.144531 C 6.832031 -3.976562 10.976562 0 18.421875 0 Z M 18.421875 0 "/></g></g></g><g fill="#ffffff" fill-opacity="1"><g transform="translate(261.44334, 305.439379)"><g><path d="M 4.703125 0 L 13.550781 0 L 13.550781 -24.023438 L 30.851562 0 L 38.414062 0 L 38.414062 -39.195312 L 29.566406 -39.195312 L 29.566406 -15.34375 L 12.261719 -39.195312 L 4.703125 -39.195312 Z M 4.703125 0 "/></g></g></g><g fill="#ffffff" fill-opacity="1"><g transform="translate(304.557316, 305.439379)"><g><path d="M 18.703125 0.785156 C 28.445312 0.785156 35.164062 -5.542969 35.164062 -14.726562 C 35.164062 -23.855469 28.445312 -30.179688 18.703125 -30.179688 C 8.902344 -30.179688 2.183594 -23.855469 2.183594 -14.726562 C 2.183594 -5.542969 8.902344 0.785156 18.703125 0.785156 Z M 10.582031 -14.726562 C 10.582031 -19.542969 13.941406 -22.902344 18.703125 -22.902344 C 23.460938 -22.902344 26.765625 -19.542969 26.765625 -14.726562 C 26.765625 -9.910156 23.460938 -6.550781 18.703125 -6.550781 C 13.941406 -6.550781 10.582031 -9.910156 10.582031 -14.726562 Z M 10.582031 -14.726562 "/></g></g></g><g fill="#ffffff" fill-opacity="1"><g transform="translate(341.9041, 305.439379)"><g><path d="M 18.421875 0 L 23.796875 0 L 23.796875 -7.390625 L 20.269531 -7.390625 C 16.910156 -7.390625 15.34375 -9.015625 15.34375 -12.429688 L 15.34375 -22.453125 L 23.40625 -22.453125 L 23.40625 -29.398438 L 15.34375 -29.398438 L 15.34375 -37.011719 L 8.734375 -37.011719 L 8.230469 -33.203125 C 7.785156 -30.179688 6.945312 -29.398438 3.75 -29.398438 L 1.121094 -29.398438 L 1.121094 -22.453125 L 6.832031 -22.453125 L 6.832031 -11.144531 C 6.832031 -3.976562 10.976562 0 18.421875 0 Z M 18.421875 0 "/></g></g></g><g fill="#ffffff" fill-opacity="1"><g transform="translate(368.052451, 305.439379)"><g><path d="M 14.054688 0.558594 C 18.421875 0.558594 22.007812 -0.839844 24.527344 -3.414062 L 25.476562 0 L 31.804688 0 L 31.804688 -17.695312 C 31.804688 -25.476562 26.542969 -30.179688 17.75 -30.179688 C 10.246094 -30.179688 5.320312 -26.597656 4.253906 -20.214844 L 12.429688 -20.214844 C 12.933594 -22.285156 15.0625 -23.6875 17.804688 -23.6875 C 21.167969 -23.6875 23.460938 -21.78125 23.460938 -18.871094 L 23.460938 -17.527344 L 12.824219 -17.527344 C 6.71875 -17.527344 2.800781 -14 2.800781 -8.566406 C 2.800781 -2.910156 7.113281 0.558594 14.054688 0.558594 Z M 11.199219 -8.902344 C 11.199219 -10.917969 12.878906 -12.207031 15.453125 -12.207031 L 23.519531 -12.207031 C 23.351562 -8.230469 20.269531 -5.542969 16.015625 -5.542969 C 13.101562 -5.542969 11.199219 -6.886719 11.199219 -8.902344 Z M 11.199219 -8.902344 "/></g></g></g><g fill="#ffffff" fill-opacity="1"><g transform="translate(384.494071, 324.589427)"><g><path d="M 0.609375 0 L 0.609375 -0.828125 L 2.953125 -0.828125 L 2.953125 -7.390625 L 2.8125 -7.421875 C 2.4375 -7.234375 2.101562 -7.085938 1.8125 -6.984375 C 1.53125 -6.890625 1.164062 -6.796875 0.71875 -6.703125 L 0.71875 -7.625 C 1.164062 -7.71875 1.601562 -7.84375 2.03125 -8 C 2.457031 -8.164062 2.847656 -8.351562 3.203125 -8.5625 L 3.9375 -8.5625 L 3.9375 -0.828125 L 6.03125 -0.828125 L 6.03125 0 Z M 0.609375 0 "/></g></g><g transform="translate(390.880789, 324.589427)"><g><path d="M 1.578125 0.0625 C 1.359375 0.0625 1.179688 0 1.046875 -0.125 C 0.921875 -0.25 0.859375 -0.414062 0.859375 -0.625 C 0.859375 -0.832031 0.921875 -1 1.046875 -1.125 C 1.179688 -1.257812 1.359375 -1.328125 1.578125 -1.328125 C 1.804688 -1.328125 1.984375 -1.265625 2.109375 -1.140625 C 2.234375 -1.015625 2.296875 -0.847656 2.296875 -0.640625 C 2.296875 -0.429688 2.226562 -0.257812 2.09375 -0.125 C 1.96875 0 1.796875 0.0625 1.578125 0.0625 Z M 1.578125 0.0625 "/></g></g><g transform="translate(394.038992, 324.589427)"><g><path d="M 4.21875 0.125 C 3.582031 0.125 3.015625 -0.0234375 2.515625 -0.328125 C 2.015625 -0.628906 1.613281 -1.109375 1.3125 -1.765625 C 1.019531 -2.429688 0.875 -3.269531 0.875 -4.28125 C 0.875 -5.300781 1.019531 -6.140625 1.3125 -6.796875 C 1.613281 -7.453125 2.015625 -7.929688 2.515625 -8.234375 C 3.015625 -8.535156 3.582031 -8.6875 4.21875 -8.6875 C 4.84375 -8.6875 5.40625 -8.535156 5.90625 -8.234375 C 6.40625 -7.929688 6.800781 -7.453125 7.09375 -6.796875 C 7.394531 -6.140625 7.546875 -5.300781 7.546875 -4.28125 C 7.546875 -3.269531 7.394531 -2.429688 7.09375 -1.765625 C 6.800781 -1.109375 6.40625 -0.628906 5.90625 -0.328125 C 5.40625 -0.0234375 4.84375 0.125 4.21875 0.125 Z M 4.21875 -0.8125 C 4.957031 -0.8125 5.519531 -1.078125 5.90625 -1.609375 C 6.289062 -2.148438 6.484375 -3.039062 6.484375 -4.28125 C 6.484375 -5.519531 6.289062 -6.410156 5.90625 -6.953125 C 5.519531 -7.492188 4.957031 -7.765625 4.21875 -7.765625 C 3.71875 -7.765625 3.300781 -7.648438 2.96875 -7.421875 C 2.632812 -7.191406 2.378906 -6.820312 2.203125 -6.3125 C 2.023438 -5.800781 1.9375 -5.125 1.9375 -4.28125 C 1.9375 -3.445312 2.023438 -2.769531 2.203125 -2.25 C 2.378906 -1.738281 2.632812 -1.367188 2.96875 -1.140625 C 3.300781 -0.921875 3.71875 -0.8125 4.21875 -0.8125 Z M 4.21875 -0.8125 "/></g></g></g></svg>