<svg xmlns="http://www.w3.org/2000/svg" xmlns:xlink="http://www.w3.org/1999/xlink" width="600" zoomAndPan="magnify" viewBox="0 0 450 149.999998" height="200" preserveAspectRatio="xMidYMid meet" version="1.0"><defs><g/><clipPath id="7930520c1f"><path d="M 371 99.777344 L 375 99.777344 L 375 108 L 371 108 Z M 371 99.777344 " clip-rule="nonzero"/></clipPath><clipPath id="a3d9597aa4"><path d="M 375 99.777344 L 377 99.777344 L 377 102 L 375 102 Z M 375 99.777344 " clip-rule="nonzero"/></clipPath><clipPath id="844247c05c"><path d="M 344.753906 106 L 347 106 L 347 108 L 344.753906 108 Z M 344.753906 106 " clip-rule="nonzero"/></clipPath></defs><path fill="#000000" d="M 357.964844 105.171875 C 357.964844 104.4375 357.964844 103.703125 357.964844 102.96875 C 357.964844 102.921875 357.960938 102.871094 357.96875 102.828125 C 357.996094 102.648438 358.089844 102.523438 358.269531 102.464844 C 358.84375 102.273438 359.433594 102.144531 360.039062 102.097656 C 360.46875 102.0625 360.894531 102.0625 361.320312 102.125 C 361.632812 102.171875 361.929688 102.25 362.210938 102.394531 C 362.753906 102.667969 363.054688 103.109375 363.160156 103.6875 C 363.1875 103.835938 363.195312 103.988281 363.195312 104.136719 C 363.195312 105.234375 363.195312 106.328125 363.195312 107.425781 C 363.195312 107.449219 363.195312 107.46875 363.195312 107.492188 C 363.191406 107.644531 363.117188 107.71875 362.957031 107.722656 C 362.617188 107.726562 362.277344 107.726562 361.941406 107.722656 C 361.789062 107.722656 361.710938 107.648438 361.703125 107.5 C 361.699219 107.464844 361.703125 107.421875 361.703125 107.386719 C 361.703125 106.386719 361.703125 105.390625 361.703125 104.394531 C 361.703125 104.265625 361.691406 104.136719 361.652344 104.011719 C 361.539062 103.683594 361.285156 103.515625 360.953125 103.441406 C 360.675781 103.382812 360.402344 103.402344 360.125 103.429688 C 359.996094 103.4375 359.867188 103.464844 359.742188 103.496094 C 359.527344 103.542969 359.464844 103.625 359.464844 103.835938 C 359.464844 105.023438 359.464844 106.210938 359.464844 107.398438 C 359.464844 107.433594 359.464844 107.464844 359.464844 107.5 C 359.457031 107.644531 359.378906 107.722656 359.226562 107.726562 C 359.050781 107.730469 358.867188 107.726562 358.691406 107.726562 C 358.535156 107.726562 358.378906 107.730469 358.222656 107.726562 C 358.039062 107.722656 357.964844 107.648438 357.964844 107.472656 C 357.964844 106.703125 357.964844 105.9375 357.964844 105.171875 Z M 357.964844 105.171875 " fill-opacity="1" fill-rule="nonzero"/><path fill="#000000" d="M 349.410156 107.722656 C 349.238281 107.722656 349.070312 107.726562 348.902344 107.722656 C 348.730469 107.71875 348.671875 107.644531 348.71875 107.480469 C 348.75 107.359375 348.777344 107.238281 348.78125 107.113281 C 348.785156 106.792969 348.652344 106.546875 348.386719 106.367188 C 348.191406 106.234375 347.976562 106.140625 347.75 106.074219 C 347.378906 105.957031 347 105.851562 346.628906 105.734375 C 346.328125 105.640625 346.039062 105.523438 345.773438 105.351562 C 345.328125 105.054688 345.109375 104.648438 345.082031 104.132812 C 345.035156 103.199219 345.574219 102.511719 346.460938 102.207031 C 346.867188 102.066406 347.292969 102.019531 347.722656 102.027344 C 348.410156 102.046875 349.066406 102.179688 349.6875 102.460938 C 349.777344 102.503906 349.863281 102.546875 349.949219 102.59375 C 350.128906 102.691406 350.171875 102.808594 350.097656 102.992188 C 350.070312 103.058594 350.035156 103.125 350.007812 103.191406 C 349.917969 103.367188 349.835938 103.542969 349.746094 103.71875 C 349.648438 103.914062 349.488281 103.96875 349.285156 103.863281 C 348.953125 103.691406 348.609375 103.539062 348.238281 103.457031 C 347.875 103.371094 347.507812 103.335938 347.136719 103.417969 C 347.023438 103.441406 346.914062 103.480469 346.816406 103.546875 C 346.535156 103.734375 346.523438 104.066406 346.792969 104.273438 C 346.914062 104.363281 347.050781 104.425781 347.195312 104.476562 C 347.542969 104.597656 347.902344 104.679688 348.257812 104.785156 C 348.585938 104.882812 348.910156 104.992188 349.210938 105.148438 C 349.421875 105.257812 349.613281 105.386719 349.78125 105.550781 C 350.132812 105.894531 350.285156 106.320312 350.300781 106.796875 C 350.308594 107.011719 350.289062 107.226562 350.226562 107.433594 C 350.21875 107.464844 350.207031 107.5 350.199219 107.535156 C 350.140625 107.679688 350.074219 107.722656 349.917969 107.726562 C 349.746094 107.726562 349.578125 107.722656 349.410156 107.722656 Z M 349.410156 107.722656 " fill-opacity="1" fill-rule="nonzero"/><g clip-path="url(#7930520c1f)"><path fill="#000000" d="M 371.199219 104.785156 C 371.199219 103.933594 371.195312 103.082031 371.199219 102.230469 C 371.199219 101.855469 371.257812 101.488281 371.414062 101.136719 C 371.6875 100.53125 372.179688 100.183594 372.839844 100.039062 C 373.300781 99.941406 373.769531 99.941406 374.230469 100.035156 C 374.242188 100.039062 374.25 100.039062 374.257812 100.039062 C 374.484375 100.089844 374.535156 100.164062 374.492188 100.386719 C 374.453125 100.582031 374.414062 100.777344 374.375 100.96875 C 374.335938 101.167969 374.265625 101.222656 374.050781 101.191406 C 373.886719 101.167969 373.714844 101.140625 373.546875 101.144531 C 373.453125 101.144531 373.359375 101.15625 373.269531 101.179688 C 372.929688 101.253906 372.734375 101.492188 372.695312 101.855469 C 372.6875 101.933594 372.683594 102.011719 372.679688 102.085938 C 372.675781 102.179688 372.675781 102.179688 372.773438 102.179688 C 373.027344 102.179688 373.28125 102.179688 373.535156 102.179688 C 373.722656 102.179688 373.910156 102.179688 374.097656 102.179688 C 374.300781 102.179688 374.371094 102.25 374.375 102.445312 C 374.375 102.679688 374.375 102.910156 374.375 103.140625 C 374.375 103.335938 374.300781 103.402344 374.097656 103.402344 C 373.671875 103.402344 373.25 103.402344 372.824219 103.402344 C 372.792969 103.402344 372.761719 103.402344 372.730469 103.402344 C 372.695312 103.402344 372.683594 103.417969 372.683594 103.449219 C 372.683594 103.484375 372.683594 103.519531 372.683594 103.554688 C 372.683594 104.839844 372.679688 106.125 372.6875 107.410156 C 372.6875 107.625 372.628906 107.730469 372.363281 107.722656 C 372.070312 107.714844 371.773438 107.714844 371.480469 107.722656 C 371.273438 107.730469 371.195312 107.613281 371.199219 107.449219 C 371.199219 106.566406 371.199219 105.671875 371.199219 104.785156 Z M 371.199219 104.785156 " fill-opacity="1" fill-rule="nonzero"/></g><path fill="#000000" d="M 376.71875 104.949219 C 376.71875 105.761719 376.71875 106.574219 376.71875 107.386719 C 376.71875 107.414062 376.71875 107.4375 376.71875 107.464844 C 376.714844 107.65625 376.644531 107.722656 376.441406 107.722656 C 376.179688 107.722656 375.921875 107.722656 375.664062 107.722656 C 375.589844 107.722656 375.519531 107.726562 375.449219 107.722656 C 375.3125 107.71875 375.234375 107.648438 375.21875 107.515625 C 375.214844 107.480469 375.21875 107.441406 375.21875 107.402344 C 375.21875 105.769531 375.21875 104.136719 375.21875 102.503906 C 375.21875 102.242188 375.277344 102.183594 375.546875 102.183594 C 375.84375 102.183594 376.140625 102.183594 376.441406 102.183594 C 376.640625 102.183594 376.714844 102.253906 376.71875 102.449219 C 376.71875 103.285156 376.71875 104.117188 376.71875 104.949219 Z M 376.71875 104.949219 " fill-opacity="1" fill-rule="nonzero"/><g clip-path="url(#a3d9597aa4)"><path fill="#7a00e6" d="M 376.765625 100.742188 C 376.765625 101.109375 376.578125 101.375 376.246094 101.46875 C 376.066406 101.519531 375.878906 101.515625 375.695312 101.464844 C 375.328125 101.359375 375.15625 101.0625 375.167969 100.691406 C 375.171875 100.632812 375.179688 100.570312 375.191406 100.511719 C 375.261719 100.234375 375.441406 100.058594 375.726562 99.996094 C 375.914062 99.953125 376.105469 99.960938 376.292969 100.023438 C 376.585938 100.125 376.726562 100.335938 376.761719 100.625 C 376.765625 100.664062 376.765625 100.703125 376.765625 100.742188 Z M 376.765625 100.742188 " fill-opacity="1" fill-rule="nonzero"/></g><g clip-path="url(#844247c05c)"><path fill="#7a00e6" d="M 346.589844 107.066406 C 346.585938 107.148438 346.582031 107.222656 346.5625 107.300781 C 346.480469 107.59375 346.285156 107.761719 345.984375 107.820312 C 345.824219 107.847656 345.664062 107.839844 345.507812 107.792969 C 345.261719 107.714844 345.09375 107.558594 345.027344 107.316406 C 344.976562 107.132812 344.980469 106.949219 345.042969 106.769531 C 345.121094 106.539062 345.292969 106.390625 345.539062 106.328125 C 345.710938 106.285156 345.882812 106.292969 346.054688 106.335938 C 346.355469 106.410156 346.558594 106.640625 346.585938 106.941406 C 346.585938 106.984375 346.589844 107.027344 346.589844 107.066406 Z M 346.589844 107.066406 " fill-opacity="1" fill-rule="nonzero"/></g><path fill="#000000" d="M 356.566406 102.886719 C 356.554688 102.683594 356.460938 102.539062 356.25 102.472656 C 356.238281 102.46875 356.226562 102.464844 356.210938 102.460938 C 355.65625 102.261719 355.085938 102.132812 354.496094 102.089844 C 354.078125 102.0625 353.65625 102.058594 353.246094 102.152344 C 352.234375 102.382812 351.539062 102.960938 351.214844 103.921875 C 350.964844 104.667969 350.996094 105.421875 351.253906 106.160156 C 351.445312 106.710938 351.800781 107.148438 352.328125 107.445312 C 352.742188 107.679688 353.199219 107.792969 353.675781 107.820312 C 354.222656 107.851562 354.757812 107.8125 355.296875 107.695312 C 355.632812 107.617188 355.957031 107.515625 356.273438 107.390625 C 356.449219 107.316406 356.546875 107.191406 356.5625 107.007812 C 356.566406 106.964844 356.566406 106.921875 356.566406 106.878906 C 356.566406 106.230469 356.566406 105.578125 356.566406 104.933594 C 356.566406 104.289062 356.566406 103.640625 356.566406 103 C 356.566406 102.964844 356.570312 102.925781 356.566406 102.886719 Z M 354.859375 106.378906 C 354.4375 106.503906 354.003906 106.558594 353.570312 106.449219 C 353.136719 106.339844 352.839844 106.074219 352.695312 105.667969 C 352.527344 105.199219 352.523438 104.722656 352.695312 104.253906 C 352.882812 103.734375 353.285156 103.464844 353.847656 103.414062 C 354.148438 103.390625 354.445312 103.417969 354.738281 103.492188 C 354.769531 103.5 354.808594 103.511719 354.839844 103.523438 C 355.011719 103.582031 355.070312 103.660156 355.074219 103.839844 C 355.074219 104.214844 355.074219 104.585938 355.074219 104.960938 C 355.074219 105.332031 355.070312 105.699219 355.074219 106.070312 C 355.074219 106.226562 355.007812 106.332031 354.859375 106.378906 Z M 354.859375 106.378906 " fill-opacity="1" fill-rule="nonzero"/><path fill="#000000" d="M 369.960938 104.039062 C 369.707031 103.183594 369.160156 102.570312 368.289062 102.257812 C 367.734375 102.0625 367.160156 102.023438 366.578125 102.125 C 365.699219 102.277344 365.035156 102.726562 364.640625 103.5 C 364.203125 104.363281 364.179688 105.257812 364.523438 106.148438 C 364.820312 106.921875 365.398438 107.433594 366.210938 107.6875 C 366.695312 107.839844 367.199219 107.875 367.703125 107.800781 C 368.605469 107.675781 369.289062 107.234375 369.722656 106.457031 C 369.984375 105.988281 370.082031 105.484375 370.085938 104.84375 C 370.082031 104.644531 370.050781 104.339844 369.960938 104.039062 Z M 368.433594 105.707031 C 368.207031 106.296875 367.671875 106.546875 367.082031 106.496094 C 366.929688 106.480469 366.78125 106.453125 366.640625 106.398438 C 366.300781 106.261719 366.070312 106.019531 365.945312 105.691406 C 365.765625 105.195312 365.765625 104.695312 365.953125 104.203125 C 366.148438 103.683594 366.597656 103.398438 367.167969 103.40625 C 367.300781 103.410156 367.433594 103.421875 367.566406 103.453125 C 367.992188 103.558594 368.28125 103.8125 368.433594 104.203125 C 368.621094 104.703125 368.621094 105.210938 368.433594 105.707031 Z M 368.433594 105.707031 " fill-opacity="1" fill-rule="nonzero"/><g fill="#ffffff" fill-opacity="1"><g transform="translate(34.9278, 96.154384)"><g><path d="M 20.722656 0.882812 C 31.207031 0.882812 37.652344 -4.105469 37.652344 -12.445312 C 37.652344 -19.457031 33.039062 -23.628906 22.046875 -26.21875 C 15.289062 -27.796875 12.949219 -29.503906 12.949219 -32.21875 C 12.949219 -35.125 15.542969 -36.894531 19.773438 -36.894531 C 24.386719 -36.894531 27.164062 -34.492188 27.164062 -30.515625 L 36.832031 -30.515625 C 36.832031 -39.421875 30.132812 -45.105469 19.648438 -45.105469 C 9.476562 -45.105469 3.160156 -40.117188 3.160156 -32.03125 C 3.160156 -24.828125 8.023438 -20.53125 18.382812 -18.320312 C 24.636719 -16.996094 27.480469 -15.164062 27.480469 -12.066406 C 27.480469 -9.097656 24.828125 -7.390625 20.660156 -7.390625 C 15.792969 -7.390625 12.636719 -9.855469 12.636719 -14.089844 L 2.78125 -14.089844 C 2.78125 -4.925781 9.601562 0.882812 20.722656 0.882812 Z M 20.722656 0.882812 "/></g></g></g><g fill="#ffffff" fill-opacity="1"><g transform="translate(75.421239, 96.154384)"><g><path d="M 4.800781 0 L 14.402344 0 L 14.402344 -17.941406 C 14.402344 -22.742188 17.058594 -25.839844 21.164062 -25.839844 C 25.144531 -25.839844 27.609375 -22.871094 27.609375 -18.195312 L 27.609375 0 L 37.085938 0 L 37.085938 -17.941406 C 37.085938 -22.742188 39.738281 -25.839844 43.84375 -25.839844 C 47.824219 -25.839844 50.289062 -22.871094 50.289062 -18.195312 L 50.289062 0 L 59.890625 0 L 59.890625 -19.332031 C 59.890625 -28.429688 54.457031 -34.050781 45.992188 -34.050781 C 40.9375 -34.050781 36.769531 -32.09375 34.050781 -28.617188 C 31.714844 -32.15625 27.859375 -34.050781 23.121094 -34.050781 C 18.890625 -34.050781 15.289062 -32.597656 12.886719 -29.753906 L 11.941406 -33.167969 L 4.800781 -33.167969 Z M 4.800781 0 "/></g></g></g><g fill="#ffffff" fill-opacity="1"><g transform="translate(139.477932, 96.154384)"><g><path d="M 15.855469 0.632812 C 20.785156 0.632812 24.828125 -0.949219 27.671875 -3.855469 L 28.746094 0 L 35.882812 0 L 35.882812 -19.964844 C 35.882812 -28.746094 29.945312 -34.050781 20.027344 -34.050781 C 11.5625 -34.050781 6 -30.007812 4.800781 -22.804688 L 14.023438 -22.804688 C 14.59375 -25.144531 16.996094 -26.722656 20.089844 -26.722656 C 23.878906 -26.722656 26.46875 -24.574219 26.46875 -21.289062 L 26.46875 -19.773438 L 14.46875 -19.773438 C 7.582031 -19.773438 3.160156 -15.792969 3.160156 -9.664062 C 3.160156 -3.285156 8.023438 0.632812 15.855469 0.632812 Z M 12.636719 -10.042969 C 12.636719 -12.320312 14.53125 -13.773438 17.4375 -13.773438 L 26.535156 -13.773438 C 26.34375 -9.285156 22.871094 -6.253906 18.066406 -6.253906 C 14.78125 -6.253906 12.636719 -7.769531 12.636719 -10.042969 Z M 12.636719 -10.042969 "/></g></g></g><g fill="#ffffff" fill-opacity="1"><g transform="translate(179.529162, 96.154384)"><g><path d="M 4.800781 0 L 14.402344 0 L 14.402344 -14.65625 C 14.402344 -21.796875 17.753906 -24.449219 23.25 -24.449219 L 26.914062 -24.449219 L 26.914062 -33.167969 L 23.3125 -33.167969 C 18.445312 -33.167969 15.351562 -31.839844 13.203125 -28.746094 L 11.941406 -33.167969 L 4.800781 -33.167969 Z M 4.800781 0 "/></g></g></g><g fill="#ffffff" fill-opacity="1"><g transform="translate(208.588412, 96.154384)"><g><path d="M 20.785156 0 L 26.847656 0 L 26.847656 -8.339844 L 22.871094 -8.339844 C 19.078125 -8.339844 17.308594 -10.171875 17.308594 -14.023438 L 17.308594 -25.332031 L 26.40625 -25.332031 L 26.40625 -33.167969 L 17.308594 -33.167969 L 17.308594 -41.757812 L 9.855469 -41.757812 L 9.285156 -37.464844 C 8.78125 -34.050781 7.832031 -33.167969 4.234375 -33.167969 L 1.261719 -33.167969 L 1.261719 -25.332031 L 7.707031 -25.332031 L 7.707031 -12.570312 C 7.707031 -4.484375 12.382812 0 20.785156 0 Z M 20.785156 0 "/></g></g></g><g fill="#ffffff" fill-opacity="1"><g transform="translate(238.089872, 96.154384)"><g><path d="M 5.308594 0 L 15.289062 0 L 15.289062 -27.101562 L 34.808594 0 L 43.339844 0 L 43.339844 -44.222656 L 33.355469 -44.222656 L 33.355469 -17.308594 L 13.835938 -44.222656 L 5.308594 -44.222656 Z M 5.308594 0 "/></g></g></g><g fill="#ffffff" fill-opacity="1"><g transform="translate(286.732527, 96.154384)"><g><path d="M 21.101562 0.882812 C 32.09375 0.882812 39.675781 -6.253906 39.675781 -16.613281 C 39.675781 -26.914062 32.09375 -34.050781 21.101562 -34.050781 C 10.042969 -34.050781 2.464844 -26.914062 2.464844 -16.613281 C 2.464844 -6.253906 10.042969 0.882812 21.101562 0.882812 Z M 11.941406 -16.613281 C 11.941406 -22.046875 15.730469 -25.839844 21.101562 -25.839844 C 26.46875 -25.839844 30.199219 -22.046875 30.199219 -16.613281 C 30.199219 -11.183594 26.46875 -7.390625 21.101562 -7.390625 C 15.730469 -7.390625 11.941406 -11.183594 11.941406 -16.613281 Z M 11.941406 -16.613281 "/></g></g></g><g fill="#ffffff" fill-opacity="1"><g transform="translate(328.868439, 96.154384)"><g><path d="M 20.785156 0 L 26.847656 0 L 26.847656 -8.339844 L 22.871094 -8.339844 C 19.078125 -8.339844 17.308594 -10.171875 17.308594 -14.023438 L 17.308594 -25.332031 L 26.40625 -25.332031 L 26.40625 -33.167969 L 17.308594 -33.167969 L 17.308594 -41.757812 L 9.855469 -41.757812 L 9.285156 -37.464844 C 8.78125 -34.050781 7.832031 -33.167969 4.234375 -33.167969 L 1.261719 -33.167969 L 1.261719 -25.332031 L 7.707031 -25.332031 L 7.707031 -12.570312 C 7.707031 -4.484375 12.382812 0 20.785156 0 Z M 20.785156 0 "/></g></g></g><g fill="#ffffff" fill-opacity="1"><g transform="translate(358.369899, 96.154384)"><g><path d="M 15.855469 0.632812 C 20.785156 0.632812 24.828125 -0.949219 27.671875 -3.855469 L 28.746094 0 L 35.882812 0 L 35.882812 -19.964844 C 35.882812 -28.746094 29.945312 -34.050781 20.027344 -34.050781 C 11.5625 -34.050781 6 -30.007812 4.800781 -22.804688 L 14.023438 -22.804688 C 14.59375 -25.144531 16.996094 -26.722656 20.089844 -26.722656 C 23.878906 -26.722656 26.46875 -24.574219 26.46875 -21.289062 L 26.46875 -19.773438 L 14.46875 -19.773438 C 7.582031 -19.773438 3.160156 -15.792969 3.160156 -9.664062 C 3.160156 -3.285156 8.023438 0.632812 15.855469 0.632812 Z M 12.636719 -10.042969 C 12.636719 -12.320312 14.53125 -13.773438 17.4375 -13.773438 L 26.535156 -13.773438 C 26.34375 -9.285156 22.871094 -6.253906 18.066406 -6.253906 C 14.78125 -6.253906 12.636719 -7.769531 12.636719 -10.042969 Z M 12.636719 -10.042969 "/></g></g></g><g fill="#000000" fill-opacity="1"><g transform="translate(380.548472, 106.025827)"><g><path d="M 0.359375 0 L 0.359375 -0.484375 L 1.703125 -0.484375 L 1.703125 -4.265625 L 1.625 -4.28125 C 1.40625 -4.175781 1.210938 -4.09375 1.046875 -4.03125 C 0.878906 -3.976562 0.671875 -3.925781 0.421875 -3.875 L 0.421875 -4.40625 C 0.671875 -4.457031 0.921875 -4.53125 1.171875 -4.625 C 1.421875 -4.71875 1.648438 -4.828125 1.859375 -4.953125 L 2.265625 -4.953125 L 2.265625 -0.484375 L 3.484375 -0.484375 L 3.484375 0 Z M 0.359375 0 "/></g></g><g transform="translate(384.24297, 106.025827)"><g><path d="M 0.90625 0.03125 C 0.78125 0.03125 0.679688 -0.00390625 0.609375 -0.078125 C 0.535156 -0.148438 0.5 -0.242188 0.5 -0.359375 C 0.5 -0.472656 0.535156 -0.566406 0.609375 -0.640625 C 0.679688 -0.722656 0.78125 -0.765625 0.90625 -0.765625 C 1.039062 -0.765625 1.144531 -0.726562 1.21875 -0.65625 C 1.289062 -0.582031 1.328125 -0.488281 1.328125 -0.375 C 1.328125 -0.25 1.289062 -0.148438 1.21875 -0.078125 C 1.144531 -0.00390625 1.039062 0.03125 0.90625 0.03125 Z M 0.90625 0.03125 "/></g></g><g transform="translate(386.069882, 106.025827)"><g><path d="M 2.4375 0.078125 C 2.070312 0.078125 1.742188 -0.0078125 1.453125 -0.1875 C 1.160156 -0.363281 0.929688 -0.640625 0.765625 -1.015625 C 0.597656 -1.398438 0.515625 -1.882812 0.515625 -2.46875 C 0.515625 -3.0625 0.597656 -3.546875 0.765625 -3.921875 C 0.929688 -4.304688 1.160156 -4.585938 1.453125 -4.765625 C 1.742188 -4.941406 2.070312 -5.03125 2.4375 -5.03125 C 2.800781 -5.03125 3.125 -4.941406 3.40625 -4.765625 C 3.695312 -4.585938 3.925781 -4.304688 4.09375 -3.921875 C 4.269531 -3.546875 4.359375 -3.0625 4.359375 -2.46875 C 4.359375 -1.882812 4.269531 -1.398438 4.09375 -1.015625 C 3.925781 -0.640625 3.695312 -0.363281 3.40625 -0.1875 C 3.125 -0.0078125 2.800781 0.078125 2.4375 0.078125 Z M 2.4375 -0.46875 C 2.863281 -0.46875 3.1875 -0.625 3.40625 -0.9375 C 3.632812 -1.25 3.75 -1.757812 3.75 -2.46875 C 3.75 -3.1875 3.632812 -3.703125 3.40625 -4.015625 C 3.1875 -4.328125 2.863281 -4.484375 2.4375 -4.484375 C 2.15625 -4.484375 1.914062 -4.414062 1.71875 -4.28125 C 1.519531 -4.15625 1.367188 -3.941406 1.265625 -3.640625 C 1.171875 -3.347656 1.125 -2.957031 1.125 -2.46875 C 1.125 -1.988281 1.171875 -1.597656 1.265625 -1.296875 C 1.367188 -1.003906 1.519531 -0.789062 1.71875 -0.65625 C 1.914062 -0.53125 2.15625 -0.46875 2.4375 -0.46875 Z M 2.4375 -0.46875 "/></g></g></g></svg>